<?xml version="1.0" standalone="no"?>
<!DOCTYPE svg PUBLIC "-//W3C//DTD SVG 20010904//EN"
 "http://www.w3.org/TR/2001/REC-SVG-20010904/DTD/svg10.dtd">
<svg version="1.0" xmlns="http://www.w3.org/2000/svg"
 width="500.000000pt" height="500.000000pt" viewBox="0 0 500.000000 500.000000"
 preserveAspectRatio="xMidYMid meet">
<metadata>
Created by potrace 1.14, written by Peter Selinger 2001-2017
</metadata>
<g transform="translate(0.000000,500.000000) scale(0.100000,-0.100000)"
fill="#000000" stroke="none">
<path d="M2358 4088 c12 -15 11 -17 -7 -15 -12 1 -21 4 -21 7 0 4 -7 7 -16 7
-15 0 -14 -2 1 -13 10 -8 21 -11 26 -9 4 3 11 0 15 -6 4 -8 3 -9 -4 -5 -7 4
-12 1 -12 -6 0 -9 -3 -9 -10 2 -5 8 -10 11 -10 5 0 -7 -3 -7 -8 0 -12 17 -47
41 -38 28 7 -12 -6 -18 -29 -13 -5 1 -5 -4 2 -11 9 -9 15 -9 26 0 12 9 16 8
21 -5 9 -24 7 -31 -4 -14 -9 13 -11 13 -19 0 -8 -12 -13 -10 -32 10 -21 24
-21 24 -15 3 8 -24 2 -27 -41 -24 -11 1 -24 -3 -28 -9 -4 -6 -16 -8 -27 -4
-16 5 -19 3 -12 -7 6 -12 5 -12 -9 0 -19 15 -24 2 -6 -16 9 -9 7 -10 -9 -6
-12 3 -20 9 -17 12 2 4 -2 8 -9 8 -11 0 -12 -4 -3 -18 6 -10 15 -15 21 -12 5
3 6 1 2 -6 -6 -8 -12 -9 -20 -2 -7 6 -16 8 -19 4 -4 -3 -13 0 -22 7 -18 15
-20 -1 -2 -19 10 -10 9 -12 -3 -9 -8 2 -14 -3 -13 -9 2 -7 -2 -13 -8 -13 -6 0
-8 8 -4 19 3 12 0 21 -9 24 -11 4 -13 1 -9 -10 4 -10 2 -14 -5 -9 -6 3 -14 1
-18 -5 -4 -7 -3 -9 4 -5 6 3 13 2 16 -3 3 -5 -9 -8 -28 -7 -27 1 -33 -2 -31
-16 3 -11 -1 -15 -11 -11 -7 3 -11 10 -7 17 4 6 -1 4 -11 -4 -17 -13 -17 -14
1 -21 13 -6 10 -8 -15 -8 -19 -1 -31 -6 -30 -13 2 -7 -8 -12 -22 -13 -18 0
-26 -6 -28 -22 -3 -20 -6 -21 -24 -12 -16 9 -19 8 -13 -2 6 -9 3 -10 -11 -5
-15 6 -14 2 6 -20 l25 -27 -25 16 c-34 24 -47 21 -19 -3 15 -12 18 -19 9 -18
-8 2 -14 -3 -12 -9 1 -7 -2 -13 -8 -13 -5 0 -10 4 -10 9 0 6 -9 9 -20 8 -10
-1 -17 -3 -15 -6 3 -2 -4 -10 -15 -18 -11 -8 -20 -21 -20 -29 0 -8 -5 -12 -10
-9 -6 4 -7 11 -4 17 4 7 2 8 -5 4 -8 -6 -9 -12 -2 -20 6 -7 8 -16 4 -20 -4 -4
0 -4 10 0 10 3 17 1 17 -5 0 -6 -6 -10 -12 -9 -7 2 -12 -3 -10 -10 1 -6 -4
-11 -10 -10 -7 2 -12 -3 -11 -9 2 -7 -3 -12 -10 -10 -6 1 -11 -4 -10 -10 2 -7
-2 -13 -8 -13 -6 0 -9 6 -6 13 3 8 -1 14 -8 14 -7 0 -12 -11 -12 -23 0 -14 4
-21 10 -17 5 3 7 1 4 -5 -4 -5 -18 -9 -32 -8 -28 4 -43 -23 -22 -39 12 -9 12
-12 0 -23 -7 -7 -11 -16 -9 -20 3 -4 -7 -9 -20 -10 -14 -1 -23 2 -19 7 3 5 0
13 -6 17 -8 4 -9 3 -5 -4 4 -7 2 -12 -4 -12 -7 0 -6 -5 2 -14 7 -7 20 -11 28
-9 9 3 8 0 -3 -7 -15 -10 -16 -14 -5 -28 12 -15 11 -16 -6 -2 -17 13 -54 25
-42 13 8 -8 -14 -34 -24 -28 -5 3 -7 -6 -5 -20 1 -15 -4 -29 -12 -34 -13 -7
-13 -9 1 -14 10 -4 14 -3 11 2 -3 5 -2 12 3 15 4 2 8 -6 8 -19 0 -14 -4 -21
-10 -17 -6 3 -18 7 -26 9 -11 1 -10 -2 4 -12 14 -10 16 -18 9 -27 -6 -7 -9
-21 -8 -30 2 -11 -2 -15 -12 -11 -12 5 -12 7 -1 14 7 5 9 9 4 9 -5 0 -3 6 3
14 9 10 8 15 -3 19 -11 4 -13 1 -9 -10 4 -10 2 -14 -5 -9 -6 3 -14 1 -18 -5
-5 -8 -3 -9 6 -4 8 5 11 3 8 -6 -3 -8 2 -22 10 -32 12 -14 13 -20 3 -30 -10
-9 -11 -8 -5 8 7 18 6 18 -9 6 -9 -7 -14 -18 -10 -24 3 -6 1 -7 -5 -3 -7 4
-19 3 -28 -2 -15 -8 -15 -10 0 -15 11 -5 15 -3 10 5 -4 7 -3 8 5 4 15 -10 3
-29 -14 -22 -8 3 -19 -2 -25 -10 -10 -11 -10 -14 0 -14 9 0 8 -5 -3 -18 -17
-18 -14 -32 7 -32 6 0 4 5 -4 11 -13 9 -13 10 1 6 13 -4 15 1 13 24 -2 18 0
28 6 24 15 -10 7 -57 -12 -69 -22 -13 -24 -30 -3 -22 8 3 15 3 15 0 0 -2 -12
-9 -26 -14 -25 -10 -25 -12 -11 -33 12 -19 13 -24 2 -24 -8 0 -12 4 -9 8 2 4
-1 11 -7 15 -8 4 -9 3 -5 -4 4 -7 2 -12 -4 -12 -7 0 -5 -7 4 -16 20 -19 20
-28 1 -21 -8 4 -17 1 -21 -5 -4 -7 -3 -8 4 -4 7 4 12 3 12 -3 0 -6 6 -9 12 -7
7 1 10 1 5 -1 -4 -3 -4 -9 -1 -15 4 -5 -4 -5 -16 2 -18 10 -21 9 -15 -1 6 -9
3 -11 -9 -6 -11 4 -15 3 -11 -4 4 -6 13 -8 20 -5 8 3 19 -3 27 -12 12 -15 11
-16 -5 -3 -17 14 -18 13 -15 -5 1 -10 8 -23 13 -27 6 -5 3 -7 -7 -4 -13 5 -16
-1 -14 -28 2 -19 0 -32 -5 -29 -4 2 -8 -5 -8 -16 -1 -11 -1 -29 -2 -40 0 -11
-4 -20 -9 -20 -9 0 -6 30 5 53 4 6 0 3 -9 -7 -8 -10 -13 -23 -10 -27 3 -5 0
-9 -7 -9 -7 0 -4 -7 7 -15 10 -8 15 -15 10 -15 -5 0 -2 -8 5 -17 10 -11 10
-14 2 -9 -8 4 -13 2 -13 -4 0 -6 -5 -8 -12 -4 -7 4 -8 3 -4 -5 4 -6 2 -19 -6
-28 -12 -15 -11 -15 10 -4 12 6 22 17 22 23 0 6 3 9 6 6 3 -3 0 -15 -7 -26
-10 -15 -20 -18 -48 -15 -20 3 -38 9 -41 14 -3 4 -15 6 -27 3 -45 -12 -66
-170 -31 -232 10 -17 18 -34 18 -37 0 -3 7 -21 15 -41 8 -20 12 -41 8 -47 -3
-5 -2 -7 3 -4 6 3 15 -3 21 -13 10 -15 9 -19 -8 -23 -17 -4 -18 -3 -8 9 14 17
3 19 -15 2 -12 -11 -10 -15 8 -25 11 -7 15 -12 9 -13 -7 0 -13 -5 -13 -11 0
-6 7 -9 15 -5 22 8 18 -2 -6 -15 -17 -9 -20 -8 -14 2 5 7 4 10 -3 5 -6 -4 -9
-13 -5 -21 4 -11 0 -14 -13 -9 -18 5 -18 5 0 -6 15 -10 16 -14 5 -21 -11 -7
-10 -9 5 -9 12 0 16 5 13 14 -3 8 2 20 11 27 14 11 15 11 5 -1 -9 -10 -9 -18
0 -34 6 -12 12 -29 13 -38 1 -14 -3 -15 -17 -8 -12 7 -20 7 -24 0 -4 -6 -1 -9
7 -8 8 2 12 -5 10 -17 -2 -16 -1 -17 7 -5 7 10 11 11 11 3 0 -7 9 -13 21 -13
11 0 18 -4 14 -9 -3 -6 3 -14 12 -20 10 -6 13 -11 7 -11 -7 0 -11 -11 -10 -24
0 -13 5 -22 9 -19 5 3 6 11 3 19 -5 12 -2 12 17 3 28 -15 37 -24 15 -16 -11 4
-15 2 -12 -6 2 -7 17 -14 32 -15 18 -1 23 1 14 7 -11 7 -11 9 1 14 12 4 15 0
12 -14 -3 -14 0 -19 9 -16 7 3 13 -1 13 -8 0 -10 -5 -11 -19 -4 -23 12 -24 0
-1 -16 15 -11 16 -15 3 -31 -14 -16 -13 -16 9 -5 13 7 21 8 17 3 -3 -6 -3 -12
1 -15 5 -2 3 -3 -3 -1 -7 1 -10 -5 -7 -17 3 -10 10 -19 15 -19 5 0 6 4 3 10
-3 5 0 7 9 4 12 -5 13 -9 3 -19 -7 -7 -16 -10 -22 -7 -5 3 -5 -1 1 -9 6 -8 10
-24 9 -36 -1 -13 1 -21 3 -18 3 3 12 -1 21 -8 13 -10 12 -7 -2 16 -13 21 -14
27 -4 27 8 0 14 -6 14 -12 0 -7 4 -21 8 -30 5 -12 3 -18 -6 -18 -9 -1 -8 -4 4
-11 9 -5 17 -15 17 -21 0 -6 -7 -5 -17 3 -17 13 -17 13 0 -7 9 -11 14 -24 10
-29 -5 -4 -2 -5 5 -1 6 4 12 3 12 -1 0 -5 -6 -15 -12 -22 -11 -10 -10 -12 2
-9 10 2 15 -4 14 -19 -1 -13 2 -23 6 -23 13 0 19 27 9 37 -6 6 -4 10 5 10 10
0 13 -9 10 -29 -2 -16 1 -26 6 -23 6 3 18 1 27 -5 16 -10 16 -10 -2 -6 -11 3
-27 1 -35 -5 -13 -10 -13 -10 1 -6 9 3 22 1 30 -4 11 -7 11 -9 1 -9 -7 0 -10
-4 -7 -10 3 -5 -1 -10 -9 -10 -9 0 -16 -4 -16 -10 0 -5 7 -7 15 -3 16 6 18
-16 2 -28 -4 -3 4 -11 17 -17 21 -9 24 -9 19 3 -3 8 -9 13 -14 10 -9 -6 -3 35
7 44 4 3 4 -1 2 -9 -3 -8 2 -23 10 -33 12 -13 13 -20 4 -29 -16 -16 -15 -31 1
-21 19 12 47 14 47 4 0 -6 -9 -8 -21 -6 -15 3 -19 0 -15 -10 3 -8 0 -15 -6
-15 -6 0 -8 -3 -5 -6 4 -4 13 -1 21 5 11 9 16 9 22 0 4 -8 3 -9 -4 -5 -7 4
-12 1 -12 -9 0 -10 -5 -13 -12 -9 -7 4 -5 -2 5 -13 9 -11 15 -22 12 -25 -3 -3
3 -11 12 -19 16 -12 17 -12 6 2 -12 15 -8 29 8 29 5 0 5 -7 2 -17 -5 -12 -3
-14 8 -8 11 6 12 5 2 -6 -7 -7 -13 -17 -13 -22 0 -4 6 -5 13 -1 9 6 9 4 -1 -8
-11 -14 -10 -18 5 -27 16 -9 14 -11 -14 -11 -5 0 -8 9 -8 20 0 10 -6 25 -14
32 -12 11 -12 10 -5 -2 11 -21 13 -80 2 -80 -5 0 -7 4 -3 9 3 5 1 12 -5 16 -6
4 -7 12 -4 18 4 7 3 8 -2 4 -5 -5 -9 -12 -9 -15 0 -4 -4 -13 -9 -21 -6 -9 -5
-12 1 -8 6 4 11 -4 11 -18 0 -22 -3 -24 -16 -13 -14 12 -14 11 -1 -9 8 -13 17
-23 22 -23 4 0 6 4 3 8 -2 4 4 8 14 8 18 0 18 -1 2 -17 -9 -9 -20 -15 -24 -12
-4 2 -5 -3 -2 -11 3 -9 10 -16 16 -16 5 0 6 5 3 10 -3 6 1 10 10 10 9 0 13 -4
10 -10 -3 -5 -1 -10 4 -10 6 0 11 -4 11 -9 0 -5 -8 -8 -17 -6 -10 1 -12 0 -5
-2 7 -3 10 -9 6 -14 -3 -5 -2 -9 3 -8 4 1 15 1 23 0 13 -1 13 -2 0 -11 -13 -8
-12 -10 3 -10 10 0 15 -5 12 -10 -4 -6 -3 -9 2 -8 4 1 18 -3 30 -10 12 -7 24
-8 27 -3 8 13 -4 20 -22 14 -10 -4 -13 -2 -8 6 4 6 4 10 -1 9 -4 -2 -18 7 -31
20 -15 15 -18 22 -8 22 8 0 18 -9 21 -20 4 -11 10 -18 14 -16 9 6 63 -28 63
-40 0 -5 2 -11 5 -14 4 -3 3 0 -1 7 -3 6 -2 14 4 18 6 4 7 12 3 18 -4 7 1 6
11 -2 9 -8 30 -15 44 -16 15 -1 33 -5 40 -9 14 -8 7 -26 -11 -26 -8 0 -8 3 2
9 9 6 10 11 2 15 -6 4 -11 2 -11 -4 0 -6 -4 -8 -10 -5 -5 3 -10 2 -10 -3 0 -5
12 -14 26 -20 14 -7 23 -8 19 -3 -3 6 4 9 15 8 22 -1 26 -12 8 -21 -7 -3 -2
-3 11 0 15 4 21 2 17 -4 -3 -6 2 -9 11 -7 10 1 28 -4 41 -11 12 -8 22 -12 22
-8 0 4 7 1 15 -6 12 -10 18 -10 30 0 8 7 15 9 15 5 0 -4 8 -1 17 6 11 10 14
10 9 2 -5 -10 3 -13 29 -13 24 0 34 4 29 11 -4 8 0 8 15 0 12 -7 27 -9 33 -5
7 5 8 2 3 -7 -5 -8 -5 -11 0 -7 4 4 15 2 24 -4 13 -10 14 -10 4 2 -17 18 -16
27 2 27 8 0 12 -4 10 -8 -3 -3 4 -9 15 -12 14 -4 18 -11 14 -24 -5 -14 -4 -15
4 -3 6 8 8 18 5 24 -4 5 1 7 10 3 10 -4 20 0 26 11 6 9 11 12 11 5 0 -6 -7
-18 -15 -26 -8 -8 -11 -17 -8 -21 4 -3 15 6 25 21 10 16 18 23 18 16 0 -7 7
-10 15 -7 8 4 15 1 15 -4 0 -6 -8 -9 -18 -7 -11 2 -19 -3 -19 -10 0 -8 4 -12
8 -9 4 2 10 0 14 -6 3 -5 12 -10 18 -10 7 0 6 4 -3 10 -11 7 -8 11 15 21 42
17 55 19 55 7 0 -6 -6 -8 -14 -5 -8 3 -20 -2 -28 -10 -11 -15 -11 -16 6 -10
10 4 25 2 32 -4 11 -9 14 -7 14 7 0 14 2 16 9 6 9 -15 17 -15 43 -1 11 6 19 5
24 -3 4 -7 3 -8 -4 -4 -7 4 -12 1 -12 -8 0 -9 -5 -16 -11 -16 -5 0 -8 4 -5 9
7 11 -21 9 -29 -2 -3 -4 -2 -5 2 -2 3 3 12 0 20 -6 8 -8 17 -8 26 -2 6 6 21
13 32 16 18 6 18 6 3 -6 -14 -11 0 -13 83 -12 54 0 99 3 99 8 0 4 -5 7 -12 7
-6 0 -9 2 -6 5 8 8 39 -6 33 -14 -2 -4 2 -8 9 -8 8 0 11 8 8 21 -4 21 -4 21
11 2 13 -17 16 -18 29 -5 8 8 15 18 15 22 1 5 4 12 8 15 4 4 5 1 3 -7 -2 -7 7
-15 20 -17 16 -3 21 0 17 8 -4 7 4 1 17 -14 23 -27 25 -27 42 -10 15 14 18 14
14 2 -4 -10 0 -16 11 -16 10 0 18 6 18 13 0 7 -4 10 -9 7 -4 -3 -8 -1 -8 5 0
5 9 9 19 8 12 -1 17 -7 14 -17 -4 -11 -3 -12 4 -2 11 14 33 13 46 -3 5 -6 7
-3 4 7 -7 19 15 30 40 21 10 -4 14 -2 10 4 -4 6 5 10 21 9 17 -1 26 4 24 12
-1 6 2 12 8 12 17 0 11 -25 -9 -37 -15 -9 -21 -9 -23 -1 -3 8 -7 8 -11 2 -3
-5 3 -16 15 -23 11 -7 17 -8 14 -2 -4 5 -1 13 5 17 6 3 15 0 20 -7 5 -8 9 -9
9 -3 0 7 13 10 30 9 16 -1 29 0 28 4 -2 19 3 31 11 26 5 -3 13 0 16 6 4 5 14
8 22 5 9 -4 22 -1 29 5 10 8 14 8 14 0 0 -6 -4 -11 -10 -11 -5 0 -10 -4 -10
-10 0 -5 7 -6 17 -3 12 5 14 3 8 -7 -5 -8 -4 -11 3 -6 6 4 8 14 5 23 -5 12 -3
14 7 8 10 -6 12 -4 7 9 -4 10 -3 15 4 11 5 -4 7 -16 4 -28 -5 -16 -4 -18 3 -8
6 8 15 10 23 5 10 -6 10 -3 -1 11 -9 11 -10 16 -2 11 7 -4 25 -9 40 -11 15 -2
21 -2 15 1 -7 3 -13 13 -12 22 0 11 2 12 6 5 5 -14 25 -18 21 -5 -2 4 0 8 5
10 17 5 26 1 31 -16 3 -9 3 -1 2 19 -3 32 -1 36 15 32 11 -3 21 -9 24 -13 3
-5 -5 -6 -17 -3 -13 3 -19 2 -15 -2 13 -14 35 -14 47 0 6 8 17 12 24 9 7 -3
19 3 27 12 9 12 10 15 2 10 -8 -4 -13 -2 -13 5 0 6 8 9 20 6 11 -3 20 -1 20 5
0 5 5 6 10 3 6 -3 10 1 10 10 0 9 5 13 10 10 6 -4 8 -11 4 -16 -3 -6 3 -5 15
3 12 7 21 17 21 22 0 4 -8 2 -17 -5 -16 -12 -17 -12 -6 2 7 9 9 20 5 24 -4 5
-2 5 5 1 12 -7 36 26 28 38 -3 3 -2 4 2 1 11 -8 11 -45 0 -38 -6 4 -7 1 -2 -7
6 -9 4 -11 -5 -5 -9 5 -11 4 -6 -4 6 -9 11 -9 22 0 7 6 11 16 8 21 -4 6 3 8
17 4 20 -6 21 -5 7 4 -26 16 -17 64 13 68 13 1 29 3 35 4 13 2 6 38 -8 38 -5
0 -7 -4 -3 -9 3 -5 2 -12 -3 -15 -5 -3 -9 2 -9 11 0 9 9 18 19 21 10 2 18 8
18 13 0 5 -6 6 -14 3 -8 -3 -17 -1 -21 5 -3 6 0 9 8 6 7 -3 26 6 41 20 15 14
22 25 16 25 -6 0 -9 4 -5 9 3 5 0 13 -6 17 -8 4 -9 3 -5 -4 4 -7 5 -12 2 -12
-3 0 -10 9 -16 20 -8 15 -8 18 3 14 19 -7 42 21 26 32 -8 5 -9 3 -4 -6 6 -9 4
-11 -5 -5 -9 6 -11 4 -5 -5 5 -9 4 -11 -4 -6 -8 6 -9 12 -2 20 6 7 7 16 3 21
-4 4 2 3 14 -3 16 -9 22 -7 33 10 7 11 8 17 2 13 -6 -3 -11 -1 -11 4 0 6 5 11
11 11 6 0 3 7 -5 16 -21 21 -20 27 2 15 16 -8 18 -6 17 12 -1 12 2 30 7 41 8
14 7 17 -3 11 -7 -5 -10 -4 -5 3 3 6 1 12 -6 15 -7 2 1 2 17 0 17 -2 25 -1 19
4 -16 12 -13 42 3 36 9 -3 11 0 7 10 -3 9 -12 13 -19 11 -7 -3 -16 -1 -20 5
-3 6 0 9 8 5 8 -3 20 2 27 11 10 12 16 13 26 4 8 -6 14 -8 14 -3 0 5 -13 18
-29 29 -16 10 -27 23 -24 28 3 5 10 2 15 -7 10 -18 38 -22 38 -5 0 5 -4 7 -10
4 -13 -8 -13 8 1 22 8 8 8 13 0 17 -17 11 -13 26 7 26 13 0 14 -2 4 -9 -11 -7
-11 -9 0 -13 9 -4 14 3 14 23 1 23 -1 27 -11 19 -9 -8 -15 -8 -20 0 -6 10 1
14 19 11 5 -1 6 5 3 13 -4 9 -1 18 5 22 7 4 6 9 -3 15 -10 6 -10 9 -2 9 6 0
10 9 8 19 -3 14 1 18 11 14 8 -3 14 -9 14 -15 0 -5 -4 -7 -8 -4 -5 3 -9 -1 -9
-9 0 -8 4 -15 8 -15 9 0 20 30 14 40 -3 4 2 13 10 20 13 11 10 44 -4 36 -3 -2
-12 2 -19 10 -11 12 -9 13 10 11 13 -1 27 -6 31 -12 5 -6 7 -3 3 8 -3 10 0 17
7 17 7 0 -1 9 -18 20 -16 11 -24 20 -17 20 7 0 10 5 6 12 -4 7 -3 8 4 4 11 -6
16 6 13 27 0 4 2 6 6 6 20 -3 34 2 28 11 -4 6 1 7 11 3 12 -4 15 -3 10 5 -4 8
0 12 11 12 20 1 64 30 45 30 -7 0 -11 12 -10 29 1 16 6 27 10 25 4 -3 8 0 8 6
0 6 5 8 11 5 6 -5 4 -12 -8 -22 -17 -13 -16 -13 5 -3 18 9 20 14 12 31 -6 11
-8 24 -5 29 3 5 1 11 -5 15 -6 4 -8 11 -4 16 3 5 10 7 15 3 5 -3 7 -9 5 -13
-3 -4 1 -8 9 -8 8 0 12 4 9 8 -2 4 -1 9 3 12 5 2 2 2 -4 1 -7 -2 -13 4 -13 12
0 8 -4 13 -8 10 -5 -3 -9 1 -9 9 0 8 5 12 10 8 5 -3 6 4 3 18 -6 20 -5 21 4 6
6 -9 9 -21 5 -26 -3 -5 -2 -12 3 -15 14 -8 14 65 0 82 -11 13 -10 14 8 4 16
-9 21 -8 21 3 0 8 -4 12 -8 9 -4 -2 -10 0 -13 5 -4 5 -2 12 4 16 6 4 8 10 5
15 -3 5 0 12 6 16 8 5 8 8 -1 14 -8 5 -8 9 3 13 11 4 15 0 12 -13 -2 -11 1
-23 7 -26 7 -4 8 -2 4 4 -4 7 -1 12 6 12 8 0 9 3 3 8 -5 4 -11 14 -13 22 -2 8
-10 28 -18 44 -8 16 -12 32 -9 34 3 3 5 0 5 -7 0 -7 5 -9 12 -5 6 4 8 3 5 -3
-4 -6 1 -17 11 -24 15 -13 16 -12 3 4 -7 9 -10 17 -7 17 4 0 1 9 -7 21 -9 12
-13 33 -10 51 3 22 1 28 -8 23 -8 -5 -10 -4 -5 3 5 8 13 9 25 3 13 -8 17 -5
18 12 0 12 -1 16 -4 10 -7 -18 -20 -16 -20 2 0 8 3 15 7 15 3 0 6 15 6 33 0
19 -5 34 -12 34 -12 0 -13 -21 -1 -33 3 -4 2 -14 -3 -24 -5 -10 -6 -20 -3 -24
3 -3 2 -6 -3 -6 -6 0 -9 28 -9 63 1 34 -3 68 -9 76 -14 18 -16 40 -5 47 6 4 6
10 0 18 -8 9 -5 19 10 34 20 23 13 32 -9 10 -9 -9 -15 -9 -24 1 -11 11 -10 13
2 9 9 -3 23 5 35 21 18 25 18 25 0 11 -17 -14 -18 -13 -12 3 4 11 1 25 -8 34
-10 9 -13 24 -10 37 5 17 4 18 -4 6 -6 -9 -11 -10 -11 -3 0 23 12 43 24 36 6
-3 7 -2 3 2 -10 12 -39 16 -32 5 3 -5 0 -12 -6 -16 -7 -4 -9 -3 -6 3 4 6 0 16
-8 23 -12 10 -13 16 -4 26 9 11 8 14 -1 14 -8 0 -10 3 -7 7 4 3 -1 12 -11 20
-16 12 -16 13 1 7 24 -9 39 -38 26 -51 -8 -8 -7 -13 0 -17 6 -4 11 -2 11 4 0
6 5 8 11 4 6 -3 3 8 -6 26 -14 27 -15 34 -3 42 9 6 6 7 -9 3 -23 -6 -35 6 -41
40 -2 11 -5 27 -6 35 -2 8 -11 14 -21 13 -12 -1 -14 2 -6 10 7 7 14 7 25 -2
11 -9 16 -9 22 0 4 8 3 9 -4 5 -16 -10 -15 7 1 23 6 7 7 11 2 9 -6 -2 -10 -1
-11 2 0 3 -7 16 -14 30 -8 14 -13 30 -11 35 1 6 -3 4 -10 -2 -20 -20 -31 -15
-18 8 7 13 7 19 1 15 -6 -3 -13 -2 -17 4 -3 5 0 10 7 10 8 1 7 5 -5 14 -14 11
-15 15 -5 19 9 4 9 6 1 6 -16 1 -26 -16 -14 -24 6 -3 8 -12 4 -20 -3 -8 0 -15
7 -15 6 0 8 -5 4 -11 -8 -13 -23 8 -29 41 -6 30 -15 41 -28 34 -9 -5 -9 -4 0
6 6 7 9 19 6 27 -3 8 0 19 7 23 9 6 7 10 -9 15 -11 3 -21 14 -21 23 0 15 -2
15 -10 2 -7 -11 -4 -18 10 -25 14 -7 17 -14 10 -25 -7 -11 -10 -12 -10 -2 0 8
-10 23 -22 34 -13 11 -17 17 -10 13 7 -4 12 0 12 9 0 9 5 16 11 16 5 0 7 5 3
11 -5 8 -10 6 -16 -5 -5 -9 -17 -16 -26 -15 -14 0 -14 2 -2 7 14 6 23 61 11
60 -20 -2 -31 3 -26 11 3 6 -9 8 -27 6 -18 -2 -27 -1 -20 2 6 2 12 9 12 15 0
6 -7 7 -16 4 -14 -5 -15 -4 -5 8 9 11 8 15 -4 20 -9 3 -13 2 -10 -4 3 -6 -1
-7 -10 -4 -12 5 -13 10 -6 17 18 18 12 31 -6 16 -14 -12 -16 -12 -8 0 6 11 4
13 -7 9 -15 -6 -51 26 -54 47 0 6 -2 13 -4 18 -1 4 -3 11 -4 16 0 5 -5 13 -10
18 -5 4 -6 3 -3 -3 11 -18 -23 -26 -39 -9 -9 8 -12 15 -7 15 5 0 14 -5 19 -10
7 -7 11 -6 11 4 0 8 -3 15 -6 14 -18 -2 -22 4 -12 15 8 10 7 14 -4 14 -8 0
-12 -4 -10 -8 3 -3 -2 -12 -10 -19 -12 -10 -14 -7 -12 16 1 17 -3 29 -10 30
-7 1 -17 2 -22 3 -5 0 -11 7 -14 14 -2 6 -3 4 -2 -5 2 -10 -2 -21 -7 -25 -7
-3 -8 -1 -4 5 4 7 2 12 -4 12 -7 0 -9 9 -5 23 6 21 5 21 -8 -2 -8 -14 -17 -19
-21 -13 -3 6 0 12 6 15 7 2 10 8 6 12 -4 4 -14 2 -23 -5 -13 -11 -14 -8 -11
19 2 17 -1 28 -6 25 -5 -3 -7 -12 -4 -19 3 -8 -2 -12 -12 -10 -9 1 -24 -3 -32
-9 -13 -10 -13 -9 -1 6 7 10 17 15 22 12 5 -3 9 0 9 6 0 7 -8 9 -20 5 -15 -5
-20 -2 -20 11 0 14 -3 14 -15 4 -13 -11 -13 -15 -3 -21 7 -5 9 -9 3 -9 -5 0
-21 9 -35 20 -14 11 -17 18 -8 14 17 -6 20 18 3 33 -4 4 -5 2 -1 -4 4 -8 1
-13 -8 -13 -19 0 -20 11 -3 30 6 8 3 7 -9 -3 -22 -18 -61 -18 -72 -1 -4 6 -15
14 -26 17 -14 6 -17 4 -12 -8 3 -9 2 -13 -4 -10 -14 9 -13 35 2 35 6 0 9 3 5
6 -6 7 -58 15 -94 16 -13 0 -20 4 -17 9 3 5 -2 6 -11 3 -14 -6 -14 -8 1 -19
15 -10 15 -12 1 -12 -22 0 -30 26 -15 46 11 14 11 14 -3 4 -9 -7 -20 -9 -24
-5 -5 4 -6 2 -2 -4 3 -5 -7 -15 -22 -21 -21 -7 -28 -7 -28 2 0 7 7 12 15 11 8
0 17 6 19 14 4 13 3 13 -6 0 -10 -13 -12 -13 -21 0 -7 12 -10 12 -10 1 0 -9
-6 -11 -17 -6 -10 4 -34 9 -53 11 -19 1 -37 3 -40 4 -20 8 -87 3 -82 -5 3 -5
-2 -4 -11 4 -15 12 -17 11 -17 -5 0 -16 -2 -16 -10 -4 -13 21 -130 22 -130 0
0 -12 -2 -13 -9 -1 -6 9 -30 14 -69 15 -50 2 -59 0 -54 -13 4 -12 -1 -11 -18
4 l-23 20 13 -24 c6 -13 7 -21 2 -17 -6 3 -12 3 -15 -1 -2 -5 -2 -3 -1 4 2 6
-5 17 -14 25 -15 12 -16 11 -4 -4z m122 -9 c12 -9 12 -10 -4 -5 -14 5 -17 2
-12 -9 3 -9 2 -13 -4 -10 -12 7 -14 35 -2 35 4 0 14 -5 22 -11z m168 -4 c3 -3
-4 -4 -16 -2 -12 2 -24 6 -28 10 -4 3 4 4 16 2 12 -2 25 -7 28 -10z m157 5 c0
-1 17 -3 38 -4 20 -1 43 -8 50 -15 10 -11 8 -11 -12 -1 -22 11 -23 10 -17 -6
6 -18 5 -18 -8 -1 -15 19 -41 24 -30 5 4 -7 -2 -5 -13 5 -15 13 -22 15 -25 6
-3 -9 -6 -8 -10 3 -5 11 -2 15 10 13 9 -2 17 -4 17 -5z m-68 -16 c-3 -3 -12
-4 -19 -1 -8 3 -5 6 6 6 11 1 17 -2 13 -5z m33 -4 c0 -5 -2 -10 -4 -10 -3 0
-8 5 -11 10 -3 6 -1 10 4 10 6 0 11 -4 11 -10z m204 -18 c2 -4 -4 -8 -14 -8
-10 0 -16 4 -14 8 3 4 9 8 14 8 5 0 11 -4 14 -8z m76 -1 c0 -5 13 -7 29 -6 22
2 28 -1 24 -12 -3 -8 -9 -11 -12 -6 -3 5 -14 9 -23 10 -33 1 -38 3 -38 13 0 6
5 10 10 10 6 0 10 -4 10 -9z m180 -81 c0 -5 -2 -10 -4 -10 -3 0 -8 5 -11 10
-3 6 -1 10 4 10 6 0 11 -4 11 -10z m-1345 -90 c-3 -5 -12 -10 -18 -10 -7 0 -6
4 3 10 19 12 23 12 15 0z m760 -24 c7 3 15 -2 19 -11 3 -9 10 -13 16 -10 5 3
10 2 10 -3 0 -5 7 -9 15 -9 8 0 12 4 9 9 -3 4 -1 8 5 8 6 0 8 8 4 18 -3 9 -3
14 1 10 13 -11 14 -42 2 -58 -10 -13 -9 -13 6 -1 10 7 15 17 12 22 -3 5 0 9 6
9 7 0 10 7 6 15 -3 8 -1 15 4 15 6 0 10 -7 10 -16 0 -8 4 -13 8 -10 4 2 14 0
22 -5 11 -7 7 -8 -12 -5 -25 4 -27 3 -18 -15 13 -24 22 -25 13 -2 -6 16 -4 16
22 -1 18 -12 25 -14 18 -5 -8 10 -9 20 -3 29 7 11 10 11 10 2 0 -7 9 -23 21
-35 15 -16 18 -17 14 -5 -5 14 -2 16 14 13 12 -2 19 0 16 5 -3 5 -14 7 -25 5
-11 -2 -22 0 -25 5 -3 5 4 7 15 5 11 -2 20 2 20 8 0 7 8 0 17 -15 20 -31 40
-43 40 -22 0 7 -4 11 -9 8 -4 -3 -5 2 -1 12 5 14 7 14 17 -5 9 -16 15 -18 23
-10 9 9 11 7 6 -9 -3 -12 -9 -19 -14 -16 -5 3 -9 1 -9 -4 0 -6 7 -13 16 -16 8
-3 13 -2 10 2 -2 4 4 19 15 32 12 15 17 18 13 7 -4 -12 -2 -16 7 -14 8 2 11 2
6 0 -4 -3 -4 -10 0 -16 4 -7 -1 -6 -10 2 -15 11 -17 11 -17 -1 0 -9 8 -15 18
-15 36 0 43 -3 36 -15 -4 -8 -3 -10 2 -5 5 5 9 13 9 19 0 6 8 12 18 14 9 1 15
-1 12 -6 -3 -4 2 -10 10 -14 9 -3 12 -12 9 -23 -5 -17 -5 -17 6 0 6 9 8 23 5
30 -4 6 1 3 10 -8 9 -11 21 -19 26 -17 6 1 8 -2 4 -8 -3 -5 -2 -10 4 -10 5 0
8 -9 6 -19 -2 -13 1 -18 13 -16 9 2 21 4 25 4 5 1 5 6 1 13 -4 7 -3 8 5 4 8
-6 9 -11 1 -21 -8 -9 -5 -11 13 -8 17 3 26 -2 35 -21 6 -15 7 -26 1 -28 -5 -2
1 -9 13 -17 21 -13 22 -13 10 1 -10 13 -10 17 4 22 9 4 19 4 22 1 3 -3 0 -5
-7 -5 -7 0 -9 -5 -6 -10 5 -8 11 -7 21 1 9 7 14 8 13 3 -4 -21 2 -28 12 -14
11 15 9 7 -9 -40 -3 -9 2 -7 14 5 10 12 18 19 17 17 -1 -3 4 -11 12 -19 8 -8
15 -19 15 -25 0 -6 -9 0 -20 13 -10 13 -19 18 -20 12 0 -7 3 -13 8 -13 4 0 14
-12 23 -26 14 -22 17 -24 22 -10 5 12 3 15 -6 10 -6 -4 -8 -3 -4 1 4 5 14 10
23 11 11 2 12 -1 4 -11 -8 -9 -6 -14 6 -19 9 -3 20 -4 25 -1 5 4 6 -2 2 -11
-4 -12 -3 -15 5 -10 7 4 12 2 12 -3 0 -15 -11 -14 -31 5 -16 14 -17 14 -14 -3
1 -10 8 -17 14 -16 15 4 14 -14 -1 -21 -7 -3 -4 -4 7 -3 11 1 20 -2 20 -8 2
-24 29 -52 47 -47 10 2 18 -1 18 -7 0 -6 -6 -11 -14 -11 -8 0 -18 -5 -22 -11
-4 -8 1 -9 17 -4 22 7 23 7 9 -11 -14 -18 -14 -18 2 -5 10 7 16 17 13 21 -3 5
0 12 7 16 7 4 10 3 5 -1 -4 -5 1 -18 10 -29 12 -14 13 -17 3 -9 -13 10 -18 8
-28 -8 -10 -15 -10 -19 0 -17 7 2 12 -2 11 -9 -2 -7 4 -10 13 -6 13 5 13 7 2
14 -9 6 -9 9 -1 9 20 0 23 -15 8 -44 -8 -14 -10 -24 -5 -21 9 6 14 -8 11 -27
0 -5 2 -7 7 -7 20 3 23 -3 11 -18 -13 -16 -12 -17 4 -4 23 18 33 8 12 -13 -9
-9 -13 -16 -8 -16 5 0 14 5 19 10 7 7 18 -6 33 -37 13 -27 20 -45 15 -41 -9 9
-34 -10 -34 -26 0 -6 4 -5 9 3 5 8 16 11 26 7 13 -5 15 -9 6 -20 -11 -14 -5
-26 13 -26 6 0 4 5 -4 10 -9 6 -10 10 -3 10 6 0 15 -5 18 -10 4 -6 12 -7 18
-4 9 5 9 4 0 -6 -8 -8 -9 -20 -2 -37 8 -22 7 -23 -14 -12 -18 9 -20 9 -10 -2
10 -10 9 -17 -5 -33 -16 -20 -16 -20 1 -7 15 12 21 9 18 -11 0 -4 6 -5 14 -2
11 5 13 2 9 -10 -3 -9 -11 -13 -17 -9 -6 3 -7 1 -3 -6 4 -6 16 -9 27 -6 11 4
19 2 19 -5 0 -6 -4 -8 -10 -5 -5 3 -10 -1 -10 -10 0 -10 5 -13 13 -9 6 4 9 4
5 -1 -4 -4 -2 -15 5 -23 9 -13 9 -14 0 -8 -8 4 -13 2 -14 -6 0 -7 -4 -4 -9 7
-7 16 -9 17 -9 3 -1 -9 4 -20 9 -23 6 -4 8 -10 5 -15 -3 -4 1 -13 8 -19 10 -8
14 -7 14 4 0 8 -3 12 -7 10 -4 -2 -7 2 -7 9 0 26 22 12 23 -15 1 -24 -2 -28
-20 -25 -13 2 -25 -4 -33 -18 -7 -11 -12 -15 -13 -8 0 15 -10 28 -60 81 -63
67 -79 62 -131 -36 -18 -35 -36 -63 -41 -63 -4 0 -8 -5 -8 -11 0 -5 4 -7 10
-4 6 3 7 -1 4 -9 -6 -16 -25 -23 -23 -8 1 4 1 13 0 21 -1 11 -4 11 -17 0 -15
-12 -16 -11 -9 11 7 24 7 24 -8 5 -8 -11 -13 -23 -11 -27 3 -5 0 -8 -5 -8 -6
0 -11 5 -11 11 0 5 -4 8 -9 5 -5 -4 -8 5 -6 19 1 14 -2 28 -8 32 -6 3 -7 1 -3
-5 4 -7 2 -12 -4 -12 -6 0 -8 -4 -5 -10 3 -5 1 -10 -4 -10 -6 0 -11 5 -11 11
0 8 -6 7 -17 -2 -11 -10 -14 -10 -9 -1 6 11 -4 17 -26 13 -4 0 -5 6 -1 14 4
13 1 14 -21 6 -17 -7 -27 -7 -32 1 -4 7 -3 8 4 4 7 -4 12 -2 12 3 0 14 -13 14
-28 -1 -15 -15 -15 -4 -1 25 9 21 9 21 -5 3 -8 -10 -19 -15 -25 -12 -5 4 -13
1 -17 -5 -4 -7 -3 -9 4 -5 6 3 13 3 16 -2 2 -4 -8 -8 -23 -7 -19 0 -27 4 -24
12 3 7 0 13 -6 13 -6 0 -11 -5 -11 -11 0 -5 -4 -7 -10 -4 -5 3 -10 1 -10 -6 0
-7 -6 -4 -14 6 -8 11 -11 26 -8 34 3 9 1 12 -6 7 -7 -4 -15 0 -19 10 -5 14 -8
13 -19 -7 -12 -21 -20 -14 -15 14 0 4 -3 7 -9 7 -11 0 -9 -28 3 -47 5 -8 4
-13 -2 -13 -10 0 -15 14 -12 33 0 4 -4 7 -10 7 -5 0 -7 5 -4 10 3 6 2 10 -4
10 -5 0 -11 -6 -14 -12 -4 -10 -7 -10 -18 0 -11 10 -11 12 1 12 7 0 10 3 7 7
-4 3 -19 -4 -33 -18 -25 -22 -26 -23 -16 -2 9 16 9 22 -3 26 -9 4 -12 1 -9 -8
3 -7 -3 -18 -14 -24 -16 -8 -21 -7 -27 6 -5 15 -7 15 -16 3 -8 -11 -9 -10 -4
8 4 13 2 22 -4 22 -6 0 -11 -6 -11 -14 0 -11 -7 -13 -30 -6 -22 6 -30 5 -30
-4 0 -6 -10 -12 -22 -13 -13 0 -17 1 -10 4 7 3 17 14 23 26 9 20 9 20 -4 5
-15 -19 -53 -25 -42 -8 4 6 11 7 17 4 7 -5 8 -2 4 5 -6 9 -13 8 -28 -6 -11
-10 -23 -17 -26 -15 -4 2 -8 -1 -10 -6 -2 -6 4 -12 13 -15 11 -4 11 -4 -2 -3
-12 1 -17 9 -16 24 2 12 -2 22 -8 22 -5 0 -8 -4 -5 -9 3 -4 -1 -16 -8 -27 -13
-17 -13 -16 -11 10 2 16 7 32 12 35 4 3 10 21 11 40 4 34 3 34 -19 20 -12 -8
-23 -28 -25 -43 -4 -39 -21 -55 -50 -50 -19 3 -24 1 -18 -8 6 -10 5 -10 -8 0
-9 7 -19 9 -22 4 -6 -10 -81 -10 -91 0 -3 3 11 4 32 2 29 -2 34 -1 23 7 -13 9
-12 10 3 5 9 -3 17 -1 17 4 0 12 -23 13 -34 3 -12 -13 -30 -10 -44 7 -10 13
-11 12 -5 -4 5 -14 3 -17 -7 -11 -9 5 -11 4 -6 -3 4 -7 1 -12 -8 -12 -10 0
-13 6 -9 17 4 11 3 14 -5 9 -7 -4 -12 -16 -12 -27 0 -15 -5 -18 -25 -15 -13 3
-30 8 -36 12 -7 4 -9 3 -5 -4 3 -6 2 -13 -4 -17 -9 -6 -14 17 -13 68 0 9 -5
17 -10 17 -6 0 -8 3 -4 6 3 4 -1 20 -9 35 -12 24 -20 28 -42 24 -15 -2 -28 -9
-30 -15 -2 -5 -10 -10 -18 -10 -8 0 -14 -5 -14 -11 0 -5 -4 -7 -10 -4 -5 3
-10 1 -10 -4 0 -6 -6 -11 -14 -11 -14 0 -99 -117 -99 -136 0 -12 -34 -7 -43 7
-7 12 -44 -8 -44 -24 0 -7 4 -6 10 3 5 8 10 11 10 5 0 -5 -5 -17 -10 -25 -7
-11 -10 -11 -10 -2 0 7 -4 10 -10 7 -17 -11 -59 28 -60 55 -1 40 -14 54 -46
46 -28 -7 -77 -52 -100 -92 -10 -16 -13 -17 -27 -5 -14 11 -18 11 -23 -4 -4
-10 -1 -21 7 -27 11 -8 11 -11 1 -15 -10 -4 -9 -8 5 -19 22 -16 2 -19 -30 -4
-21 10 -21 10 1 -6 21 -16 21 -17 5 -30 -10 -7 -22 -14 -27 -14 -6 0 -1 7 10
15 17 13 17 14 2 15 -10 0 -18 7 -18 15 0 8 -4 15 -9 15 -5 0 -11 12 -14 28
-6 26 -15 40 -64 99 -20 25 -21 28 -5 41 18 14 17 14 -33 -3 -20 -7 -20 -6 -1
9 11 9 16 16 11 16 -5 0 -4 5 3 12 8 8 8 15 1 24 -7 8 -7 14 1 19 5 3 10 16
11 28 0 12 3 16 6 10 2 -7 12 -13 21 -13 13 0 14 2 4 9 -7 4 -14 14 -15 22 -2
8 -7 21 -12 29 -7 12 -6 13 7 3 8 -7 19 -9 24 -5 4 4 3 0 -4 -10 -10 -12 -10
-18 -1 -24 7 -4 9 -3 5 4 -3 6 1 15 10 20 16 9 15 10 -3 16 -22 7 -27 33 -7
33 7 0 12 -3 11 -6 -1 -3 1 -7 6 -9 7 -2 7 5 0 25 -3 7 -9 11 -13 8 -5 -3 -11
-2 -14 3 -3 5 0 9 7 10 42 3 55 7 51 14 -3 5 -9 6 -14 3 -4 -3 -11 2 -14 11
-4 11 -2 15 7 11 8 -3 20 -1 28 4 11 7 11 9 1 9 -7 0 -10 5 -6 11 4 7 -1 7
-16 -1 -12 -6 -24 -9 -27 -7 -2 3 5 8 17 12 18 6 19 9 8 23 -12 15 -11 16 4 4
12 -10 22 -11 35 -3 10 6 13 11 7 11 -7 0 -14 7 -18 15 -4 12 0 14 19 11 15
-3 23 -1 20 5 -4 5 -11 7 -16 4 -5 -4 -9 1 -9 9 0 9 6 15 13 13 6 -1 11 4 9
12 -2 9 3 11 14 7 14 -5 15 -4 5 8 -9 11 -9 15 1 19 9 4 10 6 1 6 -14 1 -35
-33 -26 -43 3 -3 4 -6 1 -6 -3 0 -12 8 -19 17 -12 14 -12 16 0 8 11 -6 13 -4
8 9 -4 9 -3 15 2 11 5 -3 11 0 13 6 2 6 15 12 28 13 14 1 24 7 23 13 -1 6 4
16 12 23 15 12 9 44 -7 34 -5 -3 -4 3 4 15 7 11 19 23 27 26 11 4 11 3 1 -9
-6 -9 -10 -21 -7 -28 3 -8 6 -6 6 5 1 11 6 15 13 11 7 -4 8 -3 4 5 -4 6 0 14
8 17 9 3 14 10 11 14 -3 5 -1 11 5 15 5 3 10 14 10 23 0 15 -2 15 -11 2 -8
-12 -10 -12 -7 -1 2 8 11 15 20 17 10 1 15 -3 12 -11 -3 -7 -1 -16 5 -20 6 -3
9 0 5 8 -3 8 3 23 13 33 16 16 16 17 1 11 -13 -4 -15 -2 -11 10 5 12 3 14 -7
8 -9 -5 -11 -4 -6 3 8 14 41 0 50 -20 3 -7 3 -3 0 9 -4 18 -1 21 18 17 l23 -5
-23 11 c-13 5 -28 8 -33 4 -5 -3 -9 -3 -9 0 0 6 55 36 65 36 3 0 4 -4 1 -9 -7
-11 21 -8 31 4 4 4 3 5 -3 2 -6 -4 -20 3 -30 16 -14 16 -15 18 -2 9 14 -11 20
-10 36 6 11 11 18 23 15 26 -4 3 -2 6 4 6 6 0 14 -7 17 -16 6 -16 28 -16 27 1
0 6 10 21 22 35 12 13 15 19 6 12 -14 -10 -18 -10 -23 3 -3 9 -11 13 -17 9 -8
-4 -9 -3 -5 5 6 9 11 9 22 0 8 -6 17 -9 21 -6 3 4 12 2 20 -5 11 -9 12 -7 6 8
-6 17 -5 18 12 4 17 -14 18 -14 6 8 -7 13 -10 26 -7 30 3 3 6 0 6 -6 0 -7 3
-11 8 -10 4 1 16 -3 28 -9 16 -10 21 -9 21 2 0 7 -5 12 -11 11 -6 -2 -8 -1 -3
1 4 3 5 9 2 13 -3 5 -1 12 5 15 6 4 10 3 9 -2 -1 -4 1 -16 5 -25 7 -16 9 -16
29 2 15 15 24 17 34 9 8 -8 13 -8 13 -1 0 17 -24 20 -47 4 -15 -9 -23 -10 -23
-3 0 6 7 11 15 11 9 0 12 6 9 18 -4 10 -2 13 3 7 11 -15 32 -13 42 4 6 9 11
10 15 3 4 -6 14 -8 23 -5 11 4 14 3 9 -6 -5 -7 -16 -9 -28 -5 -14 4 -18 2 -14
-5 4 -6 18 -10 31 -9 13 1 21 6 19 10 -3 4 -1 8 5 8 6 0 8 7 5 15 -4 8 -10 12
-15 9 -5 -3 -6 2 -2 12 5 15 7 15 16 -2 10 -17 11 -17 19 1 6 15 7 12 3 -10
-5 -27 -4 -28 8 -13 8 10 17 16 21 13 3 -3 2 1 -4 7 -16 19 -12 31 5 14 9 -8
23 -12 32 -9 12 5 14 3 8 -8 -7 -11 -6 -12 7 -2 8 7 19 9 23 5 5 -4 5 -1 1 6
-4 7 -11 10 -16 7 -10 -6 -7 21 4 32 4 4 6 1 4 -7 -2 -9 4 -14 15 -14 14 2 16
-3 11 -19 -6 -20 -6 -20 11 -4 14 15 20 16 34 5 14 -11 14 -11 3 3 -10 14 -10
18 5 24 45 19 96 10 61 -11 -6 -4 -8 -3 -5 3 3 5 0 10 -8 10 -8 0 -12 -4 -9
-8 2 -4 -5 -6 -16 -4 -11 2 -18 0 -15 -4 7 -12 66 -5 75 9 5 7 10 8 14 2 3 -5
19 -8 36 -6 17 2 29 0 26 -4 -2 -4 4 -8 14 -8 10 0 16 6 13 12 -2 7 -15 11
-28 9 -14 -1 -22 2 -19 6 3 5 0 9 -5 9 -6 0 -11 5 -11 11 0 6 9 4 21 -5 12 -8
27 -12 34 -10z m61 -1 c1 -8 -2 -15 -6 -15 -5 0 -8 9 -7 20 1 21 10 18 13 -5z
m-899 -7 c-3 -8 -6 -5 -6 6 -1 11 2 17 5 13 3 -3 4 -12 1 -19z m770 0 c-3 -8
-6 -5 -6 6 -1 11 2 17 5 13 3 -3 4 -12 1 -19z m910 5 c0 -7 -4 -13 -9 -13 -4
0 -8 6 -8 13 0 8 -4 7 -10 -3 -5 -8 -10 -10 -10 -4 0 14 7 21 23 21 8 0 14 -6
14 -14z m-1050 -15 c-3 -8 -6 -5 -6 6 -1 11 2 17 5 13 3 -3 4 -12 1 -19z m-77
-4 c0 -8 -19 -13 -24 -6 -3 5 1 9 9 9 8 0 15 -2 15 -3z m1216 -56 c4 -7 4 -10
-1 -6 -4 4 -17 3 -29 -3 -20 -10 -20 -10 -2 5 24 19 23 19 32 4z m-1886 -30
c-8 -7 -20 -20 -27 -28 -12 -13 -13 -13 -11 0 2 8 12 20 23 27 26 16 33 16 15
1z m1500 -48 c0 -5 -2 -10 -4 -10 -3 0 -8 5 -11 10 -3 6 -1 10 4 10 6 0 11 -4
11 -10z m-1190 -35 c-5 -7 -7 -15 -3 -18 3 -4 1 -7 -5 -7 -7 0 -12 8 -12 18 0
10 7 19 15 19 10 0 12 -4 5 -12z m1283 0 c4 -8 3 -16 -1 -19 -4 -3 -9 4 -9 15
-2 23 3 25 10 4z m-1343 -9 c0 -2 -8 -10 -17 -17 -16 -13 -17 -12 -4 4 13 16
21 21 21 13z m1808 -55 c-7 -2 -14 1 -16 8 -3 9 -10 7 -26 -6 l-21 -18 19 22
c15 18 21 20 37 10 12 -8 15 -13 7 -16z m6 -25 c-10 -8 -21 -12 -24 -10 -5 6
21 24 34 24 6 0 1 -6 -10 -14z m-2204 -1 c0 -7 -30 -13 -34 -7 -3 4 4 9 15 9
10 1 19 0 19 -2z m223 -122 c-3 -7 -10 -10 -15 -7 -6 4 -5 10 3 15 11 7 11 9
1 9 -7 0 -10 5 -6 11 9 15 24 -9 17 -28z m1712 9 c-3 -3 3 -11 13 -19 16 -12
15 -13 -3 -6 -18 6 -19 5 -5 -13 14 -18 14 -18 -3 -5 -9 8 -15 16 -12 19 3 3
0 10 -5 17 -7 8 -5 12 5 12 8 0 13 -3 10 -5z m-2045 -22 c-8 -5 -11 -10 -6
-10 5 0 3 -6 -3 -13 -6 -8 -8 -17 -4 -21 4 -4 0 -4 -10 0 -9 3 -17 9 -17 12 0
10 33 42 44 42 6 0 4 -5 -4 -10z m290 -64 c0 -2 -7 -9 -15 -16 -13 -11 -14
-10 -9 4 5 14 24 23 24 12z m-22 -41 c3 -3 -4 -4 -16 -2 -12 2 -24 6 -28 10
-4 3 4 4 16 2 12 -2 25 -7 28 -10z m2217 -6 c-4 -5 -1 -9 6 -9 7 0 9 -3 6 -7
-4 -3 -2 -12 4 -20 15 -17 2 -17 -16 1 -8 7 -11 17 -7 21 4 5 -1 5 -11 2 -12
-5 -16 -3 -11 5 5 8 2 9 -10 5 -10 -4 -15 -3 -11 4 4 5 16 7 27 3 15 -4 18 -3
13 6 -5 9 -4 11 4 6 6 -4 9 -12 6 -17z m-332 -45 c-7 -3 -9 -12 -6 -20 4 -11
8 -12 13 -4 5 8 9 5 12 -8 7 -25 -18 -19 -32 8 -10 18 -4 31 14 29 7 0 6 -2
-1 -5z m-1963 -29 c0 -8 -4 -15 -10 -15 -5 0 -7 7 -4 15 4 8 8 15 10 15 2 0 4
-7 4 -15z m-9 -52 c13 -16 12 -17 -3 -4 -17 13 -22 21 -14 21 2 0 10 -8 17
-17z m-336 -151 c-3 -3 -11 0 -18 7 -9 10 -8 11 6 5 10 -3 15 -9 12 -12z
m2750 -101 c1 -10 -4 -17 -10 -15 -6 3 -11 16 -11 29 0 29 19 17 21 -14z
m-310 11 c-3 -3 -11 0 -18 7 -9 10 -8 11 6 5 10 -3 15 -9 12 -12z m-770 -133
c-4 -5 -12 -9 -18 -8 -9 0 -8 2 1 6 6 2 9 10 6 15 -4 7 -2 8 5 4 6 -4 9 -12 6
-17z m115 -17 c0 -15 -2 -15 -10 -2 -13 20 -13 33 0 25 6 -3 10 -14 10 -23z
m-1170 -61 c7 -14 7 -22 -2 -27 -7 -4 -8 -3 -4 4 4 7 0 12 -11 13 -12 0 -14 2
-4 6 11 5 11 7 0 14 -10 6 -10 9 -2 9 7 0 17 -9 23 -19z m2170 -261 c0 -5 -4
-10 -10 -10 -5 0 -10 5 -10 10 0 6 5 10 10 10 6 0 10 -4 10 -10z m-95 -360
c-2 -4 -16 -7 -30 -7 -26 0 -26 0 -5 14 13 9 18 19 13 27 -4 7 0 3 9 -7 10
-11 16 -23 13 -27z m-101 -141 c-3 -5 -10 -7 -15 -3 -5 3 -7 10 -3 15 3 5 10
7 15 3 5 -3 7 -10 3 -15z m-15 -66 c-6 -7 -15 -10 -20 -7 -13 8 -3 21 15 21
12 0 13 -4 5 -14z m-2492 -169 c-3 -3 -12 -4 -19 -1 -8 3 -5 6 6 6 11 1 17 -2
13 -5z m3 -40 c0 -8 -19 -13 -24 -6 -3 5 1 9 9 9 8 0 15 -2 15 -3z m10 -23 c0
-5 -7 -12 -16 -15 -14 -5 -15 -4 -4 9 14 17 20 19 20 6z m2346 -156 c1 -8 -2
-15 -6 -15 -5 0 -8 9 -7 20 1 21 10 18 13 -5z m-26 -50 c11 -13 10 -14 -4 -9
-9 3 -16 10 -16 15 0 13 6 11 20 -6z m5 -35 c8 -13 -5 -13 -25 0 -13 8 -13 10
2 10 9 0 20 -4 23 -10z m-2198 -34 c0 -8 -6 -12 -15 -8 -11 4 -13 1 -7 -8 6
-9 4 -11 -5 -5 -10 6 -9 11 5 22 23 16 22 16 22 -1z m2163 -91 c-7 -8 -18 -15
-24 -14 -7 0 -6 2 2 6 6 2 10 9 6 14 -3 5 2 9 12 9 13 0 14 -3 4 -15z m-160
-195 c0 -5 -5 -10 -11 -10 -5 0 -7 5 -4 10 3 6 8 10 11 10 2 0 4 -4 4 -10z
m-119 -77 c-12 -20 -14 -14 -5 12 4 9 9 14 11 11 3 -2 0 -13 -6 -23z m34 7 c3
-5 1 -10 -4 -10 -6 0 -11 5 -11 10 0 6 2 10 4 10 3 0 8 -4 11 -10z m-1635 -16
c0 -8 4 -13 8 -10 5 3 9 -1 9 -9 0 -18 -14 -10 -27 16 -7 13 -7 19 0 19 5 0
10 -7 10 -16z m83 -26 c5 1 6 -2 2 -8 -8 -13 28 -13 41 0 7 7 11 6 11 -5 0 -8
-3 -13 -5 -10 -3 3 -11 0 -18 -6 -7 -6 -19 -7 -26 -3 -7 5 -17 9 -23 9 -5 1
-9 7 -7 14 2 8 -3 11 -11 8 -7 -3 -14 1 -14 8 0 11 5 12 21 2 12 -6 25 -10 29
-9z m1378 -15 c13 -16 12 -17 -3 -4 -17 13 -22 21 -14 21 2 0 10 -8 17 -17z
m-183 -30 c-2 -11 -13 -18 -31 -18 -26 -2 -27 -1 -12 14 14 14 17 14 25 1 8
-13 10 -12 10 3 0 9 3 17 6 17 3 0 4 -8 2 -17z m-221 -9 c-3 -3 -12 -4 -19 -1
-8 3 -5 6 6 6 11 1 17 -2 13 -5z m-353 -32 c2 -4 -4 -8 -14 -8 -10 0 -16 4
-14 8 3 4 9 8 14 8 5 0 11 -4 14 -8z m286 4 c0 -3 -4 -8 -10 -11 -5 -3 -10 -1
-10 4 0 6 5 11 10 11 6 0 10 -2 10 -4z"/>
<path d="M3068 3744 c6 -12 8 -25 4 -30 -4 -5 0 -3 8 4 12 10 12 15 -4 30 -18
16 -18 16 -8 -4z"/>
<path d="M3120 3720 c0 -5 5 -10 11 -10 5 0 7 5 4 10 -3 6 -8 10 -11 10 -2 0
-4 -4 -4 -10z"/>
<path d="M3230 3651 c0 -6 4 -13 10 -16 6 -3 7 1 4 9 -7 18 -14 21 -14 7z"/>
<path d="M1946 3608 c3 -5 10 -6 15 -3 13 9 11 12 -6 12 -8 0 -12 -4 -9 -9z"/>
<path d="M3306 3591 c-4 -5 -2 -12 3 -15 5 -4 12 -2 15 3 4 5 2 12 -3 15 -5 4
-12 2 -15 -3z"/>
<path d="M3617 3156 c-4 -10 -3 -15 3 -11 14 9 12 -9 -2 -23 -9 -9 -9 -12 0
-12 7 0 12 6 12 13 0 8 4 7 10 -3 14 -22 11 1 -4 29 -11 20 -14 21 -19 7z"/>
<path d="M3685 3031 c-3 -5 -2 -12 3 -15 5 -3 9 1 9 9 0 17 -3 19 -12 6z"/>
<path d="M1531 2936 c-9 -10 -9 -16 -1 -21 8 -5 8 -11 1 -19 -8 -9 -7 -13 2
-13 7 0 12 14 13 34 1 38 1 38 -15 19z"/>
<path d="M3700 2879 c0 -5 5 -7 10 -4 6 3 10 8 10 11 0 2 -4 4 -10 4 -5 0 -10
-5 -10 -11z"/>
<path d="M2540 2869 c0 -5 -4 -8 -9 -5 -5 3 -15 -2 -22 -12 -12 -15 -12 -15 1
-5 8 6 19 11 25 11 5 0 11 5 13 11 2 6 1 11 -2 11 -3 0 -6 -5 -6 -11z"/>
<path d="M2343 2852 c-8 -14 -8 -19 1 -19 7 0 13 9 13 19 1 10 1 18 0 18 -1 0
-7 -8 -14 -18z"/>
<path d="M2863 2860 c2 -8 12 -16 23 -17 13 -2 15 -1 4 4 -8 3 -19 11 -23 17
-6 7 -7 6 -4 -4z"/>
<path d="M3112 2813 c-12 -2 -20 -9 -17 -14 4 -5 14 -5 26 2 15 7 24 7 35 -2
8 -7 14 -7 14 -1 0 8 -28 25 -33 21 -1 -1 -12 -4 -25 -6z"/>
<path d="M1995 2790 c3 -5 8 -10 11 -10 2 0 4 5 4 10 0 6 -5 10 -11 10 -5 0
-7 -4 -4 -10z"/>
<path d="M3341 2764 c0 -11 3 -14 6 -6 3 7 2 16 -1 19 -3 4 -6 -2 -5 -13z"/>
<path d="M1915 2760 c3 -5 8 -10 11 -10 2 0 4 5 4 10 0 6 -5 10 -11 10 -5 0
-7 -4 -4 -10z"/>
<path d="M3385 2741 c-6 -11 9 -23 19 -14 9 9 7 23 -3 23 -6 0 -12 -4 -16 -9z"/>
<path d="M2167 4049 c7 -7 15 -10 18 -7 3 3 -2 9 -12 12 -14 6 -15 5 -6 -5z"/>
<path d="M2143 4035 c0 -8 4 -12 9 -9 5 3 6 10 3 15 -9 13 -12 11 -12 -6z"/>
<path d="M3148 4023 c7 -3 16 -2 19 1 4 3 -2 6 -13 5 -11 0 -14 -3 -6 -6z"/>
<path d="M3200 4000 c-9 -6 -10 -10 -3 -10 6 0 15 5 18 10 8 12 4 12 -15 0z"/>
<path d="M3273 3955 c0 -8 4 -12 9 -9 4 3 8 9 8 15 0 5 -4 9 -8 9 -5 0 -9 -7
-9 -15z"/>
<path d="M1810 3886 c0 -2 7 -7 16 -10 8 -3 12 -2 9 4 -6 10 -25 14 -25 6z"/>
<path d="M1706 3778 c3 -5 10 -6 15 -3 13 9 11 12 -6 12 -8 0 -12 -4 -9 -9z"/>
<path d="M3600 3755 c-11 -13 -10 -14 5 -9 11 5 16 3 12 -2 -3 -6 -2 -15 2
-22 4 -8 11 -5 20 9 7 12 8 18 2 15 -5 -4 -14 1 -19 9 -8 15 -10 15 -22 0z"/>
<path d="M1593 3687 c-4 -8 -17 -19 -28 -26 -19 -11 -18 -12 4 -5 18 5 22 3
16 -7 -5 -8 1 -5 13 5 24 21 29 32 10 20 -8 -5 -9 -2 -5 9 8 20 1 22 -10 4z"/>
<path d="M1533 3609 c-2 -23 3 -25 10 -4 4 8 3 16 -1 19 -4 3 -9 -4 -9 -15z"/>
<path d="M1473 3544 c0 -7 5 -11 10 -7 5 3 6 -3 2 -16 -8 -26 1 -28 14 -3 7
14 5 21 -8 29 -14 9 -18 8 -18 -3z"/>
<path d="M3845 3470 c-3 -6 1 -7 9 -4 18 7 21 14 7 14 -6 0 -13 -4 -16 -10z"/>
<path d="M3845 3440 c3 -5 8 -10 11 -10 2 0 4 5 4 10 0 6 -5 10 -11 10 -5 0
-7 -4 -4 -10z"/>
<path d="M1326 3244 c-5 -14 -4 -15 9 -4 17 14 19 20 6 20 -5 0 -12 -7 -15
-16z"/>
<path d="M3955 3222 c6 -4 10 -17 9 -30 -1 -26 11 -38 22 -21 3 6 0 16 -7 21
-11 7 -11 11 -1 15 16 6 5 23 -16 23 -10 0 -13 -3 -7 -8z"/>
<path d="M1210 2910 c0 -5 5 -10 11 -10 5 0 7 5 4 10 -3 6 -8 10 -11 10 -2 0
-4 -4 -4 -10z"/>
<path d="M1195 2880 c3 -5 8 -10 11 -10 2 0 4 5 4 10 0 6 -5 10 -11 10 -5 0
-7 -4 -4 -10z"/>
<path d="M4048 2857 c7 -8 9 -17 5 -21 -12 -12 -11 -35 2 -46 8 -6 11 -18 9
-25 -4 -9 1 -13 15 -12 18 1 19 3 6 17 -8 9 -12 20 -8 25 5 4 2 5 -6 0 -9 -5
-12 -3 -9 6 3 8 11 13 17 11 7 -1 10 2 6 7 -3 6 -13 7 -23 4 -14 -5 -15 -3 -4
8 16 18 15 26 -4 33 -13 5 -14 4 -6 -7z"/>
<path d="M1200 2840 c-6 -11 -16 -17 -22 -14 -7 4 -8 3 -4 -5 4 -6 12 -9 17
-6 11 7 32 45 25 45 -3 0 -10 -9 -16 -20z"/>
<path d="M4080 2580 c-9 -6 -10 -10 -3 -10 6 0 15 5 18 10 8 12 4 12 -15 0z"/>
<path d="M4056 2402 c-2 -4 4 -9 15 -9 10 -1 19 2 19 8 0 11 -27 12 -34 1z"/>
<path d="M1065 2239 c-4 -6 -5 -12 -2 -15 2 -3 7 2 10 11 7 17 1 20 -8 4z"/>
<path d="M4030 2219 c0 -5 5 -7 10 -4 6 3 10 8 10 11 0 2 -4 4 -10 4 -5 0 -10
-5 -10 -11z"/>
<path d="M1082 2141 c-11 -6 -10 -10 4 -15 20 -8 32 0 18 14 -5 5 -15 5 -22 1z"/>
<path d="M3998 2143 c7 -3 16 -2 19 1 4 3 -2 6 -13 5 -11 0 -14 -3 -6 -6z"/>
<path d="M3950 2086 c0 -2 7 -7 16 -10 8 -3 12 -2 9 4 -6 10 -25 14 -25 6z"/>
<path d="M3930 2059 c0 -5 5 -7 10 -4 6 3 10 8 10 11 0 2 -4 4 -10 4 -5 0 -10
-5 -10 -11z"/>
<path d="M1110 2049 c0 -5 5 -7 10 -4 6 3 10 1 10 -4 0 -6 5 -11 11 -11 8 0 8
5 -1 15 -14 17 -30 20 -30 4z"/>
<path d="M3884 2033 c-13 -20 -13 -25 -2 -16 8 7 18 10 22 6 4 -4 4 1 0 11 -6
15 -4 17 6 11 9 -5 11 -4 6 3 -10 16 -11 16 -32 -15z"/>
<path d="M1226 1918 c3 -5 10 -6 15 -3 13 9 11 12 -6 12 -8 0 -12 -4 -9 -9z"/>
<path d="M3825 1831 c-6 -11 13 -26 22 -17 4 3 0 6 -8 6 -11 0 -11 2 1 10 9 6
10 10 3 10 -6 0 -14 -4 -18 -9z"/>
<path d="M3770 1646 c0 -2 7 -9 15 -16 13 -11 14 -10 9 4 -5 14 -24 23 -24 12z"/>
<path d="M1380 1570 c-9 -6 -10 -10 -3 -10 6 0 15 5 18 10 8 12 4 12 -15 0z"/>
<path d="M3755 1539 c-4 -6 -5 -12 -2 -15 2 -3 7 2 10 11 7 17 1 20 -8 4z"/>
<path d="M3598 1193 c9 -4 10 -8 2 -18 -8 -9 -8 -15 0 -20 10 -6 11 -5 14 17
0 6 7 13 15 16 9 3 11 0 6 -8 -5 -9 -4 -11 4 -6 18 11 4 24 -26 23 -16 0 -22
-2 -15 -4z"/>
<path d="M1644 1053 c4 -24 21 -27 37 -6 7 10 10 15 5 11 -5 -4 -17 -3 -26 2
-14 8 -18 6 -16 -7z"/>
<path d="M3110 953 c0 -9 3 -13 7 -10 3 4 13 1 21 -6 13 -11 14 -9 1 11 -16
26 -29 29 -29 5z"/>
<path d="M2030 950 c0 -5 5 -10 11 -10 5 0 7 5 4 10 -3 6 -8 10 -11 10 -2 0
-4 -4 -4 -10z"/>
<path d="M2915 929 c-4 -6 -4 -13 -1 -16 3 -4 6 -1 6 7 0 10 4 10 18 -1 15
-13 16 -12 3 4 -16 20 -18 20 -26 6z"/>
<path d="M2675 920 c-3 -5 -1 -10 4 -10 6 0 11 5 11 10 0 6 -2 10 -4 10 -3 0
-8 -4 -11 -10z"/>
<path d="M2700 918 c0 -4 9 -8 20 -8 11 0 20 4 20 8 0 4 -9 8 -20 8 -11 0 -20
-4 -20 -8z"/>
</g>
</svg>
